{"asset":{"version":"2.0","generator":"VECTARY"},"nodes":[{"translation":[0,0,0],"scale":[0.0004999079517032808,0.0004995791861826698,0.0004999958869574265],"rotation":[-0.7071067811865475,0,0,0.7071067811865476],"name":"Project Name","mesh":0}],"materials":[{"pbrMetallicRoughness":{"baseColorFactor":[0.8670237934377415,0.8670237934377415,0.8670237934377415,1],"metallicFactor":0,"roughnessFactor":0.2},"name":"Ducati","emissiveFactor":[0,0,0],"extensions":{},"alphaMode":"OPAQUE","doubleSided":false}],"meshes":[{"primitives":[{"mode":4,"attributes":{"POSITION":1,"NORMAL":2,"TEXCOORD_0":3},"material":0,"indices":0}]}],"accessors":[{"bufferView":0,"byteOffset":0,"componentType":5125,"count":287565,"type":"SCALAR"},{"bufferView":1,"byteOffset":0,"componentType":5126,"count":242767,"max":[81251.484375,41431.09765625,23139.3984375],"min":[-9646.44921875,-17597.3828125,-11506.486328125],"type":"VEC3"},{"bufferView":2,"byteOffset":0,"componentType":5126,"count":242767,"type":"VEC3"},{"bufferView":3,"byteOffset":0,"componentType":5126,"count":242767,"type":"VEC2"}],"bufferViews":[{"buffer":0,"byteOffset":0,"byteLength":1150260,"target":34963},{"buffer":0,"byteOffset":1150260,"byteLength":2913204,"target":34962},{"buffer":0,"byteOffset":4063464,"byteLength":2913204,"target":34962},{"buffer":0,"byteOffset":6976668,"byteLength":1942136,"target":34962}],"scene":0,"scenes":[{"nodes":[0],"name":"Project Name"}],"extensionsUsed":["KHR_texture_transform"],"buffers":[{"byteLength":8918804,"uri":"ProjectName.bin"}]}